# xmcd
#
# Track frame offsets:
#	150
#	10212
#	21093
#	30391
#	40477
#	52853
#	63089
#	74506
#	86205
#	95083
#	104758
#	112807
#	126286
#	135651
#	153012
#	167074
#	178230
#	188149
#	202625
#	215495
#	234533
#	247377
#	258669
#	270787
#	294894
#	306512
#	322498
#
# Disc length: 4673 seconds
#
# Revision: 1
# Processed by: cddbd v1.5.1PL2 Copyright (c) Steve Scherf et al.
# Submitted via: EasyCDDAExtractor 6.2.0.3
#
DISCID=8a123f1b
DTITLE=Johnny Cash - The Legend  ( 4 CD-Box ) - CD 2
DYEAR=2005
DGENRE=Country
TTITLE0=Hey Porter 
TTITLE1=Cry, Cry, Cry 
TTITLE2=Luther Played The Boogie
TTITLE3=Get Rhythm 
TTITLE4=Give My Love To Rose 
TTITLE5=I Was There When It Happened
TTITLE6=Big River
TTITLE7=I Still Miss Someone 
TTITLE8=Pickin' Time 
TTITLE9=The Man On The Hill 
TTITLE10=Five Feet High And Rising
TTITLE11=Tennessee Flat-Top Box 
TTITLE12=I Got Stripes 
TTITLE13=Troublesome Waters 
TTITLE14=The Long Black Veil 
TTITLE15=Dark As A Dungeon 
TTITLE16=The Wall 
TTITLE17=25 Minutes To Go 
TTITLE18=Cocaine Blues (Live Version)
TTITLE19=Doin' My Time (Previously Unreleased)
TTITLE20=I Will Rock And Roll With You
TTITLE21=Without Love 
TTITLE22=The Big Light 
TTITLE23=Highway Patrolman 
TTITLE24=I'm Never Gonna Roam Again (Previously Unreleased)
TTITLE25=When I'm Gray (Previously Unreleased)
TTITLE26=Forever Young 
EXTD=Disc Two:  Old Favorites and New\nSONY BMG Music Entertainment\nCOL 51746
EXTD=1 2  ( 5 099751 746126 )
EXTT0=
EXTT1=
EXTT2=
EXTT3=
EXTT4=
EXTT5=
EXTT6=
EXTT7=
EXTT8=
EXTT9=
EXTT10=
EXTT11=
EXTT12=
EXTT13=
EXTT14=
EXTT15=
EXTT16=
EXTT17=
EXTT18=
EXTT19=
EXTT20=
EXTT21=
EXTT22=
EXTT23=
EXTT24=
EXTT25=
EXTT26=
PLAYORDER=
